<?xml version="1.0" encoding="UTF-8" standalone="no"?>
<!-- Created with Inkscape (http://www.inkscape.org/) -->

<svg
   xmlns:dc="http://purl.org/dc/elements/1.1/"
   xmlns:cc="http://creativecommons.org/ns#"
   xmlns:rdf="http://www.w3.org/1999/02/22-rdf-syntax-ns#"
   xmlns:svg="http://www.w3.org/2000/svg"
   xmlns="http://www.w3.org/2000/svg"
   xmlns:sodipodi="http://sodipodi.sourceforge.net/DTD/sodipodi-0.dtd"
   xmlns:inkscape="http://www.inkscape.org/namespaces/inkscape"
   width="210mm"
   height="297mm"
   viewBox="0 0 210 297"
   version="1.1"
   id="svg8"
   inkscape:version="0.92.5 (2060ec1f9f, 2020-04-08)"
   sodipodi:docname="NeunPunkte.svg">
  <defs
     id="defs2" />
  <sodipodi:namedview
     id="base"
     pagecolor="#ffffff"
     bordercolor="#666666"
     borderopacity="1.0"
     inkscape:pageopacity="0.0"
     inkscape:pageshadow="2"
     inkscape:zoom="0.49497475"
     inkscape:cx="244.45215"
     inkscape:cy="558.07236"
     inkscape:document-units="mm"
     inkscape:current-layer="layer1"
     showgrid="false"
     inkscape:window-width="1824"
     inkscape:window-height="1057"
     inkscape:window-x="48"
     inkscape:window-y="0"
     inkscape:window-maximized="1" />
  <metadata
     id="metadata5">
    <rdf:RDF>
      <cc:Work
         rdf:about="">
        <dc:format>image/svg+xml</dc:format>
        <dc:type
           rdf:resource="http://purl.org/dc/dcmitype/StillImage" />
        <dc:title></dc:title>
      </cc:Work>
    </rdf:RDF>
  </metadata>
  <g
     inkscape:label="Layer 1"
     inkscape:groupmode="layer"
     id="layer1">
    <path
       style="opacity:1;fill:#c01c24;fill-opacity:1;stroke:#69c3b4;stroke-width:0.20047922;stroke-linecap:round;stroke-linejoin:miter;stroke-miterlimit:4;stroke-dasharray:none;stroke-dashoffset:0;stroke-opacity:1"
       id="path815"
       sodipodi:type="arc"
       sodipodi:cx="31.633383"
       sodipodi:cy="85.02285"
       sodipodi:rx="11.113868"
       sodipodi:ry="11.113868"
       sodipodi:start="4.7153386"
       sodipodi:end="4.6592437"
       sodipodi:open="true"
       d="M 31.666164,73.909031 A 11.113868,11.113868 0 0 1 42.746569,84.899776 11.113868,11.113868 0 0 1 31.912287,96.133218 11.113868,11.113868 0 0 1 20.528019,85.457531 11.113868,11.113868 0 0 1 31.043011,73.924674" />
    <path
       style="opacity:1;fill:#c01c24;fill-opacity:1;stroke:#69c3b4;stroke-width:0.20047922;stroke-linecap:round;stroke-linejoin:miter;stroke-miterlimit:4;stroke-dasharray:none;stroke-dashoffset:0;stroke-opacity:1"
       id="path815-2"
       sodipodi:type="arc"
       sodipodi:cx="82.223717"
       sodipodi:cy="85.02285"
       sodipodi:rx="11.113868"
       sodipodi:ry="11.113868"
       sodipodi:start="4.7153386"
       sodipodi:end="4.6592437"
       sodipodi:open="true"
       d="M 82.256498,73.909031 A 11.113868,11.113868 0 0 1 93.336903,84.899776 11.113868,11.113868 0 0 1 82.502621,96.133218 11.113868,11.113868 0 0 1 71.118353,85.457531 11.113868,11.113868 0 0 1 81.633345,73.924674"
       inkscape:transform-center-x="22.861644"
       inkscape:transform-center-y="9.8233631" />
    <path
       style="opacity:1;fill:#c01c24;fill-opacity:1;stroke:#69c3b4;stroke-width:0.20047922;stroke-linecap:round;stroke-linejoin:miter;stroke-miterlimit:4;stroke-dasharray:none;stroke-dashoffset:0;stroke-opacity:1"
       id="path815-9"
       sodipodi:type="arc"
       sodipodi:cx="132.81403"
       sodipodi:cy="85.02285"
       sodipodi:rx="11.113868"
       sodipodi:ry="11.113868"
       sodipodi:start="4.7153386"
       sodipodi:end="4.6592437"
       sodipodi:open="true"
       d="m 132.84681,73.909031 a 11.113868,11.113868 0 0 1 11.0804,10.990745 11.113868,11.113868 0 0 1 -10.83428,11.233442 11.113868,11.113868 0 0 1 -11.38427,-10.675687 11.113868,11.113868 0 0 1 10.51499,-11.532857" />
    <path
       style="opacity:1;fill:#c01c24;fill-opacity:1;stroke:#69c3b4;stroke-width:0.20047922;stroke-linecap:round;stroke-linejoin:miter;stroke-miterlimit:4;stroke-dasharray:none;stroke-dashoffset:0;stroke-opacity:1"
       id="path815-6"
       sodipodi:type="arc"
       sodipodi:cx="31.633383"
       sodipodi:cy="136.64017"
       sodipodi:rx="11.113868"
       sodipodi:ry="11.113868"
       sodipodi:start="4.7153386"
       sodipodi:end="4.6592437"
       sodipodi:open="true"
       d="M 31.666164,125.52635 A 11.113868,11.113868 0 0 1 42.746569,136.51709 11.113868,11.113868 0 0 1 31.912287,147.75053 11.113868,11.113868 0 0 1 20.528019,137.07485 11.113868,11.113868 0 0 1 31.043011,125.54199" />
    <path
       style="opacity:1;fill:#c01c24;fill-opacity:1;stroke:#69c3b4;stroke-width:0.20047922;stroke-linecap:round;stroke-linejoin:miter;stroke-miterlimit:4;stroke-dasharray:none;stroke-dashoffset:0;stroke-opacity:1"
       id="path815-0"
       sodipodi:type="arc"
       sodipodi:cx="82.223717"
       sodipodi:cy="136.64017"
       sodipodi:rx="11.113868"
       sodipodi:ry="11.113868"
       sodipodi:start="4.7153386"
       sodipodi:end="4.6592437"
       sodipodi:open="true"
       d="M 82.256498,125.52635 A 11.113868,11.113868 0 0 1 93.336903,136.51709 11.113868,11.113868 0 0 1 82.502621,147.75053 11.113868,11.113868 0 0 1 71.118353,137.07485 11.113868,11.113868 0 0 1 81.633345,125.54199" />
    <path
       style="opacity:1;fill:#c01c24;fill-opacity:1;stroke:#69c3b4;stroke-width:0.20047922;stroke-linecap:round;stroke-linejoin:miter;stroke-miterlimit:4;stroke-dasharray:none;stroke-dashoffset:0;stroke-opacity:1"
       id="path815-7"
       sodipodi:type="arc"
       sodipodi:cx="132.81404"
       sodipodi:cy="136.64017"
       sodipodi:rx="11.113868"
       sodipodi:ry="11.113868"
       sodipodi:start="4.7153386"
       sodipodi:end="4.6592437"
       sodipodi:open="true"
       d="m 132.84682,125.52635 a 11.113868,11.113868 0 0 1 11.08041,10.99074 11.113868,11.113868 0 0 1 -10.83428,11.23344 11.113868,11.113868 0 0 1 -11.38427,-10.67568 11.113868,11.113868 0 0 1 10.51499,-11.53286" />
    <path
       style="opacity:1;fill:#c01c24;fill-opacity:1;stroke:#69c3b4;stroke-width:0.20047922;stroke-linecap:round;stroke-linejoin:miter;stroke-miterlimit:4;stroke-dasharray:none;stroke-dashoffset:0;stroke-opacity:1"
       id="path815-01"
       sodipodi:type="arc"
       sodipodi:cx="31.633383"
       sodipodi:cy="188.25748"
       sodipodi:rx="11.113868"
       sodipodi:ry="11.113868"
       sodipodi:start="4.7153386"
       sodipodi:end="4.6592437"
       sodipodi:open="true"
       d="M 31.666164,177.14366 A 11.113868,11.113868 0 0 1 42.746569,188.1344 11.113868,11.113868 0 0 1 31.912287,199.36784 11.113868,11.113868 0 0 1 20.528019,188.69216 11.113868,11.113868 0 0 1 31.043011,177.1593" />
    <path
       style="opacity:1;fill:#c01c24;fill-opacity:1;stroke:#69c3b4;stroke-width:0.20047922;stroke-linecap:round;stroke-linejoin:miter;stroke-miterlimit:4;stroke-dasharray:none;stroke-dashoffset:0;stroke-opacity:1"
       id="path815-013"
       sodipodi:type="arc"
       sodipodi:cx="82.223717"
       sodipodi:cy="188.25748"
       sodipodi:rx="11.113868"
       sodipodi:ry="11.113868"
       sodipodi:start="4.7153386"
       sodipodi:end="4.6592437"
       sodipodi:open="true"
       d="M 82.256498,177.14366 A 11.113868,11.113868 0 0 1 93.336903,188.1344 11.113868,11.113868 0 0 1 82.502621,199.36784 11.113868,11.113868 0 0 1 71.118353,188.69216 11.113868,11.113868 0 0 1 81.633345,177.1593" />
    <path
       style="opacity:1;fill:#c01c24;fill-opacity:1;stroke:#69c3b4;stroke-width:0.20047922;stroke-linecap:round;stroke-linejoin:miter;stroke-miterlimit:4;stroke-dasharray:none;stroke-dashoffset:0;stroke-opacity:1"
       id="path815-77"
       sodipodi:type="arc"
       sodipodi:cx="132.81404"
       sodipodi:cy="188.25748"
       sodipodi:rx="11.113868"
       sodipodi:ry="11.113868"
       sodipodi:start="4.7153386"
       sodipodi:end="4.6592437"
       sodipodi:open="true"
       d="m 132.84682,177.14366 a 11.113868,11.113868 0 0 1 11.08041,10.99074 11.113868,11.113868 0 0 1 -10.83428,11.23344 11.113868,11.113868 0 0 1 -11.38427,-10.67568 11.113868,11.113868 0 0 1 10.51499,-11.53286" />
    <path
       style="fill:none;stroke:#69c3b4;stroke-width:3.0163722;stroke-linecap:butt;stroke-linejoin:miter;stroke-miterlimit:4;stroke-dasharray:none;stroke-opacity:1"
       d="M 148.86353,67.827719 C 31.13825,185.553 29.714975,189.41619 29.714975,189.41619 L 187.08866,189.82282 28.901672,29.195934 30.121625,161.3573 v 0"
       id="path880"
       inkscape:connector-curvature="0"
       sodipodi:nodetypes="cccccc" />
  </g>
</svg>
