<?xml version="1.0" encoding="UTF-8" standalone="no"?>
<svg
   xmlns:dc="http://purl.org/dc/elements/1.1/"
   xmlns:cc="http://creativecommons.org/ns#"
   xmlns:rdf="http://www.w3.org/1999/02/22-rdf-syntax-ns#"
   xmlns:svg="http://www.w3.org/2000/svg"
   xmlns="http://www.w3.org/2000/svg"
   xmlns:sodipodi="http://sodipodi.sourceforge.net/DTD/sodipodi-0.dtd"
   xmlns:inkscape="http://www.inkscape.org/namespaces/inkscape"
   width="318.97308pt"
   height="56.695328pt"
   viewBox="0 0 318.97309 56.69533"
   version="1.2"
   id="svg31"
   sodipodi:docname="bbwBreit2.svg"
   inkscape:version="0.92.3 (2405546, 2018-03-11)">
  <metadata
     id="metadata37">
    <rdf:RDF>
      <cc:Work
         rdf:about="">
        <dc:format>image/svg+xml</dc:format>
        <dc:type
           rdf:resource="http://purl.org/dc/dcmitype/StillImage" />
        <dc:title></dc:title>
      </cc:Work>
    </rdf:RDF>
  </metadata>
  <defs
     id="defs35" />
  <sodipodi:namedview
     pagecolor="#ffffff"
     bordercolor="#666666"
     borderopacity="1"
     objecttolerance="10"
     gridtolerance="10"
     guidetolerance="10"
     inkscape:pageopacity="0"
     inkscape:pageshadow="2"
     inkscape:window-width="1514"
     inkscape:window-height="738"
     id="namedview33"
     showgrid="false"
     fit-margin-top="0"
     fit-margin-left="0"
     fit-margin-right="0"
     fit-margin-bottom="0"
     inkscape:zoom="0.84604972"
     inkscape:cx="124.72312"
     inkscape:cy="98.266663"
     inkscape:window-x="36"
     inkscape:window-y="0"
     inkscape:window-maximized="0"
     inkscape:current-layer="svg31" />
  <g
     id="g4563"
     transform="translate(-45.934638,-24.241035)">
    <path
       style="fill:#6e6b6e;fill-opacity:1;fill-rule:nonzero;stroke:none"
       d="m 241.58367,80.725423 h 1.02344 l 2.49218,-8.84375 h 0.0273 l 2.50391,8.84375 h 0.99609 l 2.72657,-9.87891 h -0.9414 l -2.25392,8.64844 h -0.0273 l -2.42187,-8.64844 h -1.17969 l -2.40625,8.64844 h -0.0273 l -2.24219,-8.64844 h -1.01172 z m 10.6875,0 h 0.87109 v -7.13672 h -0.87109 z m 0,-8.48437 h 0.87109 v -1.39454 h -0.87109 z m 2.47266,8.48437 h 0.87109 v -4.16406 c 0.0273,-1.39844 0.85938,-2.44922 2.24219,-2.44922 1.41406,0 1.8164,0.92578 1.8164,2.15625 v 4.45703 h 0.86719 v -4.59375 c 0,-1.70312 -0.60547,-2.75391 -2.61328,-2.75391 -1.01172,0 -1.96484,0.58204 -2.28516,1.4375 h -0.0273 v -1.22656 h -0.87109 z m 8.6875,-9.28516 h -0.8711 v 2.14844 h -1.24609 v 0.73047 h 1.24609 v 4.88672 c -0.0117,1.21875 0.38672,1.60547 1.55078,1.60547 0.26172,0 0.51172,-0.0273 0.77344,-0.0273 v -0.74609 c -0.25,0.0273 -0.49609,0.0391 -0.74609,0.0391 -0.625,-0.0391 -0.70703,-0.37109 -0.70703,-0.9414 v -4.81641 h 1.45312 v -0.73047 h -1.45312 z m 8.34765,5.94922 c 0.0703,-2.0039 -0.84375,-4.01172 -3.14062,-4.01172 -2.26953,0 -3.22656,1.89454 -3.22656,3.77735 0,2.03515 0.95703,3.78125 3.22656,3.78125 1.80078,0 2.73828,-0.94141 3.11328,-2.5625 h -0.87109 c -0.27735,1.08203 -0.96875,1.82812 -2.24219,1.82812 -1.67578,0 -2.33985,-1.53515 -2.35547,-2.8125 z m -5.49609,-0.73047 c 0.14062,-1.30078 0.92969,-2.54687 2.35547,-2.54687 1.41015,0 2.23047,1.23047 2.26953,2.54687 z m 6.71484,4.06641 h 0.8711 v -3.80469 c 0,-1.48047 1.08203,-2.64453 2.66015,-2.5625 v -0.86718 c -1.28906,-0.0586 -2.25781,0.62109 -2.69922,1.76953 h -0.0312 v -1.67188 h -0.80078 z m 6.14844,-9.28516 h -0.86719 v 2.14844 h -1.24609 v 0.73047 h 1.24609 v 4.88672 c -0.0156,1.21875 0.38672,1.60547 1.54688,1.60547 0.26172,0 0.51172,-0.0273 0.77734,-0.0273 v -0.74609 c -0.25,0.0273 -0.5,0.0391 -0.75,0.0391 -0.62109,-0.0391 -0.70703,-0.37109 -0.70703,-0.9414 v -4.81641 h 1.45703 v -0.73047 h -1.45703 z m 2.52344,9.28516 h 0.87109 v -4.16406 c 0.0273,-1.39844 0.85938,-2.44922 2.24609,-2.44922 1.41016,0 1.8125,0.92578 1.8125,2.15625 v 4.45703 h 0.8711 v -4.59375 c 0,-1.70312 -0.60938,-2.75391 -2.61719,-2.75391 -1.01172,0 -1.96484,0.58204 -2.28516,1.4375 h -0.0273 v -3.96875 h -0.87109 z m 13.16797,-7.13672 h -0.8711 v 3.75 c 0,1.45313 -0.65234,2.86328 -2.14844,2.86328 -1.38281,0 -1.86718,-0.67578 -1.91015,-1.96484 v -4.64844 h -0.8711 v 4.63672 c 0,1.66016 0.70704,2.71094 2.50391,2.71094 1.06641,0 2.00781,-0.53906 2.46484,-1.4961 h 0.0312 v 1.28516 h 0.80079 z m 1.61718,7.13672 h 0.8711 v -3.80469 c 0,-1.48047 1.08203,-2.64453 2.66015,-2.5625 v -0.86718 c -1.28906,-0.0586 -2.25781,0.62109 -2.70312,1.76953 h -0.0273 v -1.67188 h -0.80078 v 7.13672"
       id="path2"
       inkscape:connector-curvature="0" />
    <path
       style="fill:#6e6b6e;fill-opacity:1;fill-rule:nonzero;stroke:none"
       d="m 240.57586,60.557454 h 3.23828 c 1.64843,0 2.60547,0.648438 2.60547,1.910159 0,1.57812 -1.20704,2.05078 -2.60547,2.03515 h -3.23828 z m -0.94141,4.746099 h 4.17969 c 3.21093,0 3.54297,-1.86719 3.54297,-2.8086 0,-1.289061 -0.8125,-2.242186 -2.08594,-2.406249 v -0.03125 c 1.02344,-0.21875 1.71484,-1.175781 1.71484,-2.210937 0,-1.84375 -1.50781,-2.421875 -3.17187,-2.421875 h -4.17969 z m 0.94141,-9.07813 h 3.23828 c 1.46875,0 2.23047,0.621094 2.23047,1.855469 0,0.925781 -0.71875,1.675781 -2.23047,1.675781 h -3.23828 z m 14.11328,5.74219 c 0.0703,-2.003909 -0.83984,-4.011721 -3.14063,-4.011721 -2.26953,0 -3.22265,1.894531 -3.22265,3.777343 0,2.035158 0.95312,3.781248 3.22265,3.781248 1.80079,0 2.74219,-0.9414 3.11329,-2.5625 h -0.8711 c -0.27344,1.08203 -0.96875,1.82813 -2.24219,1.82813 -1.67578,0 -2.33984,-1.53906 -2.35546,-2.8125 z m -5.49609,-0.730471 c 0.14062,-1.300781 0.92968,-2.550781 2.35546,-2.550781 1.41407,0 2.23047,1.234374 2.26954,2.550781 z m 6.71093,4.066411 h 0.86719 v -3.804692 c 0,-1.480469 1.08203,-2.644532 2.66016,-2.5625 v -0.871094 c -1.28907,-0.05469 -2.25782,0.625 -2.69922,1.773437 h -0.0273 v -1.675781 h -0.80078 z m 10.17969,-7.14063 h -0.87109 v 3.75 c 0,1.45703 -0.64844,2.86719 -2.14453,2.86719 -1.38672,0 -1.8711,-0.67969 -1.91407,-1.96485 v -4.65234 h -0.86718 v 4.63672 c 0,1.66406 0.70312,2.71484 2.5039,2.71484 1.06641,0 2.00781,-0.53906 2.46485,-1.49609 h 0.0273 v 1.28516 h 0.80078 z m 4.40234,0 h -1.41015 v -0.621094 c 0.0117,-0.777344 -0.0156,-1.386718 0.95312,-1.386718 0.21094,0 0.40235,0.02734 0.63672,0.07031 v -0.746094 c -0.27344,-0.04297 -0.48047,-0.05469 -0.73047,-0.05469 -1.39843,0 -1.74218,0.855469 -1.73047,2.089843 v 0.648438 h -1.21875 v 0.734375 h 1.21875 v 6.40626 h 0.8711 v -6.40626 h 1.41015 z m 5.98438,2.089844 c -0.0547,-1.550782 -1.19141,-2.296875 -2.61719,-2.296875 -1.26172,0 -2.68359,0.554687 -2.68359,2.007812 0,1.214844 0.85547,1.601563 1.99219,1.90625 l 1.12109,0.249999 c 0.78906,0.19531 1.56641,0.47266 1.56641,1.30469 0,0.99609 -1.13672,1.35547 -1.95313,1.35547 -1.16406,0 -2.03516,-0.60938 -2.10547,-1.78516 h -0.87109 c 0.14062,1.74219 1.27344,2.51953 2.93359,2.51953 1.33203,0 2.86328,-0.59765 2.86328,-2.14453 0,-1.24609 -1.03515,-1.828124 -2.03125,-1.980468 l -1.16406,-0.261718 c -0.59375,-0.15625 -1.48047,-0.433594 -1.48047,-1.207032 0,-0.929687 0.91406,-1.234374 1.6875,-1.234374 1,0 1.82813,0.484374 1.8711,1.566406 z m 7.20703,1.480468 c 0,1.484378 -0.67969,3.046878 -2.33984,3.046878 -1.85547,0 -2.50782,-1.5625 -2.50782,-3.046878 0,-1.480468 0.65235,-3.046874 2.50782,-3.046874 1.66015,0 2.33984,1.566406 2.33984,3.046874 z m -5.71875,3.570318 h 0.80469 v -1.35547 h 0.0234 c 0.40235,0.96875 1.40235,1.5664 2.55079,1.5664 2.17187,0 3.21093,-1.75781 3.21093,-3.781248 0,-2.019531 -1.03906,-3.777343 -3.21093,-3.777343 -1.06641,0 -2.10547,0.539062 -2.48047,1.5625 h -0.0273 v -4.09375 h -0.87109 z m 7.91797,0 h 0.87109 v -7.14063 h -0.87109 z m 0,-8.48438 h 0.87109 v -1.394531 h -0.87109 z m 2.48047,8.48438 h 0.87109 v -9.878911 h -0.87109 z m 3.05078,-3.570318 c 0,-1.480468 0.67969,-3.046874 2.33984,-3.046874 1.85938,0 2.50781,1.566406 2.50781,3.046874 0,1.484378 -0.64843,3.046878 -2.50781,3.046878 -1.66015,0 -2.33984,-1.5625 -2.33984,-3.046878 z m 5.71875,-6.308593 h -0.8711 v 4.09375 h -0.0273 c -0.375,-1.023438 -1.41016,-1.5625 -2.48047,-1.5625 -2.17187,0 -3.20703,1.757812 -3.20703,3.777343 0,2.023438 1.03516,3.781248 3.20703,3.781248 1.03906,0 2.17578,-0.63672 2.55078,-1.5664 h 0.0273 v 1.35547 h 0.80078 z m 7.39844,2.738281 h -0.8711 v 3.75 c 0,1.45703 -0.64844,2.86719 -2.14453,2.86719 -1.38672,0 -1.87109,-0.67969 -1.91016,-1.96485 v -4.65234 h -0.87109 v 4.63672 c 0,1.66406 0.70313,2.71484 2.50391,2.71484 1.0664,0 2.00781,-0.53906 2.46484,-1.49609 h 0.0273 v 1.28516 h 0.80079 z m 1.60546,7.14063 h 0.8711 v -4.164068 c 0.0273,-1.398437 0.85937,-2.453124 2.24219,-2.453124 1.41406,0 1.8164,0.929687 1.8164,2.160156 v 4.457036 h 0.8711 v -4.593755 c 0,-1.703125 -0.60938,-2.753906 -2.61719,-2.753906 -1.01172,0 -1.96485,0.582031 -2.28516,1.4375 h -0.0273 v -1.230469 h -0.8711 z m 10.25782,-0.8125 c -1.60938,0 -2.35547,-1.39844 -2.35547,-2.839849 0,-1.480469 0.6914,-2.964843 2.35547,-2.964843 1.64453,0 2.29687,1.566406 2.29687,2.964843 0,1.453129 -0.78906,2.839849 -2.29687,2.839849 z m 3.16797,-6.32813 h -0.8711 v 1.230469 h -0.0273 c -0.34766,-0.789063 -1.23438,-1.4375 -2.26953,-1.4375 -2.06641,0 -3.22657,1.632812 -3.22657,3.597656 0,2.035155 0.94141,3.667965 3.22657,3.667965 1.02343,0 1.86718,-0.59375 2.26953,-1.46484 h 0.0273 v 0.96875 c 0,1.74219 -0.6914,2.69922 -2.29687,2.69922 -0.97266,0 -1.89844,-0.375 -2.09375,-1.42578 h -0.8711 c 0.125,1.52344 1.53516,2.15625 2.96485,2.15625 2.33984,0 3.15234,-1.29688 3.16797,-3.42969 z m 6.76953,2.089844 c -0.0586,-1.550782 -1.19141,-2.296875 -2.61719,-2.296875 -1.26172,0 -2.68359,0.554687 -2.68359,2.007812 0,1.214844 0.85546,1.601563 1.99218,1.90625 l 1.1211,0.249999 c 0.78906,0.19531 1.5625,0.47266 1.5625,1.30469 0,0.99609 -1.13282,1.35547 -1.94922,1.35547 -1.16406,0 -2.03906,-0.60938 -2.10547,-1.78516 h -0.87109 c 0.13671,1.74219 1.27343,2.51953 2.93359,2.51953 1.32812,0 2.86328,-0.59765 2.86328,-2.14453 0,-1.24609 -1.03516,-1.828124 -2.03125,-1.980468 l -1.16406,-0.261718 c -0.59766,-0.15625 -1.48047,-0.433594 -1.48047,-1.207032 0,-0.929687 0.91406,-1.234374 1.6875,-1.234374 0.99609,0 1.82812,0.484374 1.87109,1.566406 z m 6.67968,0 c -0.0547,-1.550782 -1.1875,-2.296875 -2.61718,-2.296875 -1.25782,0 -2.6836,0.554687 -2.6836,2.007812 0,1.214844 0.85547,1.601563 1.99219,1.90625 l 1.12109,0.249999 c 0.78907,0.19531 1.56641,0.47266 1.56641,1.30469 0,0.99609 -1.13672,1.35547 -1.95312,1.35547 -1.16407,0 -2.03516,-0.60938 -2.10547,-1.78516 h -0.8711 c 0.14063,1.74219 1.27344,2.51953 2.9336,2.51953 1.33203,0 2.86718,-0.59765 2.86718,-2.14453 0,-1.24609 -1.03906,-1.828124 -2.03515,-1.980468 l -1.16406,-0.261718 c -0.59375,-0.15625 -1.48047,-0.433594 -1.48047,-1.207032 0,-0.929687 0.91406,-1.234374 1.6914,-1.234374 0.9961,0 1.82422,0.484374 1.86719,1.566406 z m 7.35938,0.152344 c -0.19531,-1.632813 -1.37109,-2.449219 -2.89453,-2.449219 -2.1875,0 -3.375,1.730469 -3.375,3.777343 0,2.050778 1.1875,3.781248 3.375,3.781248 1.59375,0 2.71484,-1.05078 2.94922,-2.76953 h -0.8711 c -0.11328,1.19141 -1,2.03516 -2.07812,2.03516 -1.67578,0 -2.50391,-1.52344 -2.50391,-3.046878 0,-1.523437 0.82813,-3.046874 2.50391,-3.046874 1.13672,0 1.78515,0.652343 2.02344,1.71875 z m 1.24609,4.898442 h 0.8711 v -4.164068 c 0.0273,-1.398437 0.85937,-2.453124 2.24218,-2.453124 1.41407,0 1.81641,0.929687 1.81641,2.160156 v 4.457036 h 0.86719 v -4.593755 c 0,-1.703125 -0.60547,-2.753906 -2.61328,-2.753906 -1.01172,0 -1.96875,0.582031 -2.28516,1.4375 h -0.0273 v -3.96875 h -0.8711 z m 13.15625,-7.14063 h -0.86718 v 3.75 c 0,1.45703 -0.65235,2.86719 -2.14844,2.86719 -1.38281,0 -1.8711,-0.67969 -1.91016,-1.96485 v -4.65234 h -0.87109 v 4.63672 c 0,1.66406 0.70312,2.71484 2.5039,2.71484 1.06641,0 2.00782,-0.53906 2.46485,-1.49609 h 0.0273 v 1.28516 h 0.80078 z m 1.61719,7.14063 h 0.87109 v -9.878911 h -0.87109 z m 8.51953,-3.33594 c 0.0703,-2.003909 -0.84375,-4.011721 -3.14062,-4.011721 -2.27344,0 -3.22657,1.894531 -3.22657,3.777343 0,2.035158 0.95313,3.781248 3.22657,3.781248 1.80078,0 2.73828,-0.9414 3.11328,-2.5625 h -0.8711 c -0.27734,1.08203 -0.96875,1.82813 -2.24218,1.82813 -1.67578,0 -2.33985,-1.53906 -2.35547,-2.8125 z m -5.49609,-0.730471 c 0.14062,-1.300781 0.92969,-2.550781 2.35547,-2.550781 1.41015,0 2.23047,1.234374 2.26953,2.550781 h -4.625"
       id="path4"
       inkscape:connector-curvature="0" />
  </g>
  <g
     id="g4577"
     transform="translate(-28.347656,-28.34375)">
    <path
       style="fill:#99d11e;fill-opacity:1;fill-rule:nonzero;stroke:none"
       d="m 115.57031,56.691406 c 2.53125,-3 4.0625,-6.871094 4.0625,-11.105468 0,-9.523438 -7.72265,-17.242188 -17.24218,-17.242188 H 90.707031 v 12.25 h 11.683599 v 0.01172 c 2.75,0 4.97656,2.230469 4.97656,4.980469 0,2.71875 -2.17578,4.917968 -4.87891,4.96875 -0.0352,0 -0.0664,-0.0039 -0.0977,-0.0039 v 0.03125 H 90.707031 v 12.25 h 11.683599 c 0.0312,0 0.0664,-0.0078 0.0977,-0.0078 2.70313,0.05469 4.87891,2.253906 4.87891,4.96875 0,2.75 -2.22656,4.980469 -4.97656,4.980469 v 0.01562 H 90.707031 v 12.25 h 11.683599 c 9.51953,0 17.24218,-7.722656 17.24218,-17.246093 0,-4.230469 -1.53125,-8.101563 -4.0625,-11.101563"
       id="path6"
       inkscape:connector-curvature="0" />
    <path
       style="fill:#99d11e;fill-opacity:1;fill-rule:nonzero;stroke:none"
       d="m 149.51172,56.691406 c 2.53125,-3 4.0625,-6.871094 4.0625,-11.105468 0,-9.523438 -7.71875,-17.242188 -17.24219,-17.242188 h -11.68359 v 12.25 h 11.68359 v 0.01172 c 2.75,0 4.98047,2.230469 4.98047,4.980469 0,2.71875 -2.17969,4.917968 -4.88281,4.96875 -0.0312,0 -0.0664,-0.0039 -0.0977,-0.0039 v 0.03125 H 124.6484 v 12.25 h 11.68359 c 0.0312,0 0.0664,-0.0078 0.10156,-0.0078 2.69922,0.05469 4.87891,2.253906 4.87891,4.96875 0,2.75 -2.23047,4.980469 -4.98047,4.980469 v 0.01562 H 124.6484 v 12.25 h 11.68359 c 9.52344,0 17.24219,-7.722656 17.24219,-17.246093 0,-4.230469 -1.53125,-8.101563 -4.0625,-11.101563"
       id="path8"
       inkscape:connector-curvature="0" />
    <path
       style="fill:#99d11e;fill-opacity:1;fill-rule:nonzero;stroke:none"
       d="m 187.08594,80.976562 c 3,2.53125 6.87109,4.0625 11.10547,4.0625 9.52343,0 17.24218,-7.722656 17.24218,-17.246093 V 56.113281 h -12.25 v 11.679688 h -0.0117 c 0,2.75 -2.23046,4.980469 -4.98046,4.980469 -2.71875,0 -4.91797,-2.175782 -4.96875,-4.878907 0,-0.03516 0.004,-0.06641 0.004,-0.101562 h -0.0312 V 56.113281 h -12.25 v 11.679688 c 0,0.03516 0.008,0.06641 0.008,0.101562 -0.0547,2.703125 -2.2539,4.878907 -4.96875,4.878907 -2.75,0 -4.98046,-2.230469 -4.98046,-4.980469 h -0.0156 V 56.113281 h -12.25 v 11.679688 c 0,9.523437 7.72266,17.246093 17.24609,17.246093 4.23047,0 8.10157,-1.53125 11.10157,-4.0625"
       id="path10"
       inkscape:connector-curvature="0" />
    <path
       style="fill:#99d11e;fill-opacity:1;fill-rule:nonzero;stroke:none"
       d="m 37.359375,58.089844 c 4.976563,0 9.011719,-4.035156 9.011719,-9.011719 0,-4.976563 -4.035156,-9.011719 -9.011719,-9.011719 -4.976563,0 -9.011719,4.035156 -9.011719,9.011719 0,4.976563 4.035156,9.011719 9.011719,9.011719"
       id="path12"
       inkscape:connector-curvature="0" />
    <path
       style="fill:#99d11e;fill-opacity:1;fill-rule:nonzero;stroke:none"
       d="m 64.011719,61.867188 c 4.796875,0 8.683593,-3.890626 8.683593,-8.6875 0,-4.792969 -3.886718,-8.683594 -8.683593,-8.683594 -4.796875,0 -8.683594,3.890625 -8.683594,8.683594 0,4.796874 3.886719,8.6875 8.683594,8.6875"
       id="path14"
       inkscape:connector-curvature="0" />
    <path
       style="fill:#99d11e;fill-opacity:1;fill-rule:nonzero;stroke:none"
       d="m 49.148438,74.164062 c 5.554687,0 10.058593,-4.503906 10.058593,-10.054687 0,-5.554687 -4.503906,-10.058594 -10.058593,-10.058594 -5.554688,0 -10.054688,4.503907 -10.054688,10.058594 0,5.550781 4.5,10.054687 10.054688,10.054687"
       id="path16"
       inkscape:connector-curvature="0" />
    <path
       style="fill:#99d11e;fill-opacity:1;fill-rule:nonzero;stroke:none"
       d="m 51.160156,54.167969 c 2.644532,0 4.792969,-2.144531 4.792969,-4.789063 0,-2.648437 -2.148437,-4.789062 -4.792969,-4.789062 -2.644531,0 -4.789062,2.140625 -4.789062,4.789062 0,2.644532 2.144531,4.789063 4.789062,4.789063"
       id="path18"
       inkscape:connector-curvature="0" />
    <path
       style="fill:#99d11e;fill-opacity:1;fill-rule:nonzero;stroke:none"
       d="m 60.726562,35.675781 c 2.023438,0 3.664063,-1.640625 3.664063,-3.664062 0,-2.027344 -1.640625,-3.667969 -3.664063,-3.667969 -2.023437,0 -3.664062,1.640625 -3.664062,3.667969 0,2.023437 1.640625,3.664062 3.664062,3.664062"
       id="path20"
       inkscape:connector-curvature="0" />
    <path
       style="fill:#99d11e;fill-opacity:1;fill-rule:nonzero;stroke:none"
       d="m 63.316406,70.296875 c 2.347656,0 4.25,-1.902344 4.25,-4.25 0,-2.351563 -1.902344,-4.253906 -4.25,-4.253906 -2.347656,0 -4.253906,1.902343 -4.253906,4.253906 0,2.347656 1.90625,4.25 4.253906,4.25"
       id="path22"
       inkscape:connector-curvature="0" />
    <path
       style="fill:#99d11e;fill-opacity:1;fill-rule:nonzero;stroke:none"
       d="m 56.984375,46.359375 c 3.167969,0 5.734375,-2.570313 5.734375,-5.734375 0,-3.167969 -2.566406,-5.734375 -5.734375,-5.734375 -3.167969,0 -5.734375,2.566406 -5.734375,5.734375 0,3.164062 2.566406,5.734375 5.734375,5.734375"
       id="path24"
       inkscape:connector-curvature="0" />
    <path
       style="fill:#99d11e;fill-opacity:1;fill-rule:nonzero;stroke:none"
       d="m 78.839844,60.253906 c 3.425781,0 6.199218,-2.777344 6.199218,-6.203125 0,-3.421875 -2.773437,-6.199219 -6.199218,-6.199219 -3.425782,0 -6.199219,2.777344 -6.199219,6.199219 0,3.425781 2.773437,6.203125 6.199219,6.203125"
       id="path26"
       inkscape:connector-curvature="0" />
    <path
       style="fill:#99d11e;fill-opacity:1;fill-rule:nonzero;stroke:none"
       d="m 40.921875,85.035156 c 3.613281,0 6.539063,-2.925781 6.539063,-6.539062 0,-3.613282 -2.925782,-6.539063 -6.539063,-6.539063 -3.613281,0 -6.542969,2.925781 -6.542969,6.539063 0,3.613281 2.929688,6.539062 6.542969,6.539062"
       id="path28"
       inkscape:connector-curvature="0" />
  </g>
</svg>
