<?xml version="1.0" encoding="UTF-8" standalone="no"?>
<!-- Created with Inkscape (http://www.inkscape.org/) -->

<svg
   xmlns:dc="http://purl.org/dc/elements/1.1/"
   xmlns:cc="http://creativecommons.org/ns#"
   xmlns:rdf="http://www.w3.org/1999/02/22-rdf-syntax-ns#"
   xmlns:svg="http://www.w3.org/2000/svg"
   xmlns="http://www.w3.org/2000/svg"
   xmlns:sodipodi="http://sodipodi.sourceforge.net/DTD/sodipodi-0.dtd"
   xmlns:inkscape="http://www.inkscape.org/namespaces/inkscape"
   version="1.1"
   id="svg815"
   xml:space="preserve"
   width="184"
   height="165.33333"
   viewBox="0 0 184 165.33333"
   sodipodi:docname="traube.svg"
   inkscape:version="0.92.5 (2060ec1f9f, 2020-04-08)"><metadata
     id="metadata821"><rdf:RDF><cc:Work
         rdf:about=""><dc:format>image/svg+xml</dc:format><dc:type
           rdf:resource="http://purl.org/dc/dcmitype/StillImage" /><dc:title></dc:title></cc:Work></rdf:RDF></metadata><defs
     id="defs819" /><sodipodi:namedview
     pagecolor="#ffffff"
     bordercolor="#666666"
     borderopacity="1"
     objecttolerance="10"
     gridtolerance="10"
     guidetolerance="10"
     inkscape:pageopacity="0"
     inkscape:pageshadow="2"
     inkscape:window-width="1824"
     inkscape:window-height="1059"
     id="namedview817"
     showgrid="false"
     inkscape:zoom="5.3165324"
     inkscape:cx="92"
     inkscape:cy="82.666664"
     inkscape:window-x="48"
     inkscape:window-y="0"
     inkscape:window-maximized="1"
     inkscape:current-layer="g823" /><g
     id="g823"
     inkscape:groupmode="layer"
     inkscape:label="ink_ext_XXXXXX"
     transform="matrix(1.3333333,0,0,-1.3333333,0,165.33333)"><g
       id="g825"
       transform="scale(0.1)"><path
         d="M 439.488,790.121 C 439.488,680.781 341.129,592.148 219.77,592.148 98.3984,592.148 0,680.781 0,790.121 0,899.449 98.3984,988.09 219.77,988.09 c 121.359,0 219.718,-88.641 219.718,-197.969 z"
         style="fill:#b1c700;fill-opacity:1;fill-rule:nonzero;stroke:none"
         id="path827"
         inkscape:connector-curvature="0" /><path
         d="m 749.73,462.461 c 0,-120.859 -108.992,-218.789 -243.441,-218.789 -134.449,0 -243.437,97.93 -243.437,218.789 0,120.82 108.988,218.789 243.437,218.789 134.449,0 243.441,-97.969 243.441,-218.789 z"
         style="fill:#b1c700;fill-opacity:1;fill-rule:nonzero;stroke:none"
         id="path829"
         inkscape:connector-curvature="0" /><path
         d="M 464.648,148.051 C 464.648,69.0586 393.828,5 306.449,5 219.102,5 148.281,69.0586 148.281,148.051 c 0,78.98 70.821,143.039 158.168,143.039 87.379,0 158.199,-64.059 158.199,-143.039 z"
         style="fill:#b1c700;fill-opacity:1;fill-rule:nonzero;stroke:none"
         id="path831"
         inkscape:connector-curvature="0" /><path
         d="m 1076.45,703.012 c 0,-104.102 -92.899,-188.524 -207.47,-188.524 -114.57,0 -207.421,84.422 -207.421,188.524 0,104.097 92.851,188.468 207.421,188.468 114.571,0 207.47,-84.371 207.47,-188.468 z"
         style="fill:#b1c700;fill-opacity:1;fill-rule:nonzero;stroke:none"
         id="path833"
         inkscape:connector-curvature="0" /><path
         d="m 1375.7,679.34 c 0,-75.36 -67.46,-136.41 -150.62,-136.41 -83.2,0 -150.63,61.05 -150.63,136.41 0,75.308 67.43,136.398 150.63,136.398 83.16,0 150.62,-61.09 150.62,-136.398 z"
         style="fill:#b1c700;fill-opacity:1;fill-rule:nonzero;stroke:none"
         id="path835"
         inkscape:connector-curvature="0" /><path
         d="m 674.879,783.48 c 0,-57.539 -52.578,-104.179 -117.457,-104.179 -64.883,0 -117.461,46.64 -117.461,104.179 0,57.571 52.578,104.219 117.461,104.219 64.879,0 117.457,-46.648 117.457,-104.219 z"
         style="fill:#b1c700;fill-opacity:1;fill-rule:nonzero;stroke:none"
         id="path837"
         inkscape:connector-curvature="0" /><path
         d="m 833.98,972.891 c 0,-68.012 -61.91,-123.161 -138.281,-123.161 -76.398,0 -138.32,55.149 -138.32,123.161 0,68.009 61.922,123.159 138.32,123.159 76.371,0 138.281,-55.15 138.281,-123.159 z"
         style="fill:#b1c700;fill-opacity:1;fill-rule:nonzero;stroke:none"
         id="path839"
         inkscape:connector-curvature="0" /><path
         d="m 871.879,1159.45 c 0,-44.45 -38.598,-80.54 -86.219,-80.54 -47.609,0 -86.211,36.09 -86.211,80.54 0,44.5 38.602,80.55 86.211,80.55 47.621,0 86.219,-36.05 86.219,-80.55 z"
         style="fill:#b1c700;fill-opacity:1;fill-rule:nonzero;stroke:none"
         id="path841"
         inkscape:connector-curvature="0" /><path
         d="m 955.199,420.781 c 0,-51.801 -46.648,-93.793 -104.179,-93.793 -57.579,0 -104.219,41.992 -104.219,93.793 0,51.797 46.64,93.789 104.219,93.789 57.531,0 104.179,-41.992 104.179,-93.789 z"
         style="fill:#b1c700;fill-opacity:1;fill-rule:nonzero;stroke:none"
         id="path843"
         inkscape:connector-curvature="0" /></g></g></svg>