<?xml version="1.0" encoding="UTF-8" standalone="no"?>
<!-- Created with Inkscape (http://www.inkscape.org/) -->

<svg
   xmlns:dc="http://purl.org/dc/elements/1.1/"
   xmlns:cc="http://creativecommons.org/ns#"
   xmlns:rdf="http://www.w3.org/1999/02/22-rdf-syntax-ns#"
   xmlns:svg="http://www.w3.org/2000/svg"
   xmlns="http://www.w3.org/2000/svg"
   xmlns:sodipodi="http://sodipodi.sourceforge.net/DTD/sodipodi-0.dtd"
   xmlns:inkscape="http://www.inkscape.org/namespaces/inkscape"
   version="1.1"
   id="svg2"
   width="3477.6758"
   height="1638.3121"
   viewBox="0 0 3477.6758 1638.3121"
   sodipodi:docname="Klapopustri.svg"
   inkscape:version="0.92.5 (2060ec1f9f, 2020-04-08)">
  <metadata
     id="metadata8">
    <rdf:RDF>
      <cc:Work
         rdf:about="">
        <dc:format>image/svg+xml</dc:format>
        <dc:type
           rdf:resource="http://purl.org/dc/dcmitype/StillImage" />
        <dc:title></dc:title>
      </cc:Work>
    </rdf:RDF>
  </metadata>
  <defs
     id="defs6" />
  <sodipodi:namedview
     pagecolor="#ffffff"
     bordercolor="#666666"
     borderopacity="1"
     objecttolerance="10"
     gridtolerance="10"
     guidetolerance="10"
     inkscape:pageopacity="0"
     inkscape:pageshadow="2"
     inkscape:window-width="1824"
     inkscape:window-height="1059"
     id="namedview4"
     showgrid="false"
     fit-margin-top="0"
     fit-margin-left="0"
     fit-margin-right="0"
     fit-margin-bottom="0"
     inkscape:zoom="0.22692308"
     inkscape:cx="2033.8585"
     inkscape:cy="711.20413"
     inkscape:window-x="48"
     inkscape:window-y="0"
     inkscape:window-maximized="1"
     inkscape:current-layer="svg2" />
  <path
     style="fill:#5464ff;fill-opacity:1;stroke:#2d227c;stroke-width:37.79527664;stroke-linecap:butt;stroke-linejoin:round;stroke-miterlimit:4;stroke-dasharray:none;stroke-opacity:1"
     d="m 2557.2919,110.93991 c -63.8231,107.16932 -97.643,186.87308 -131.3405,300.56975 L 973.94443,366.82338 501.47947,1619.4181 245.88625,879.07912 c 0,0 -152.176008,27.1033 -202.711858,-66.1017 -50.53586,-93.205 -19.95235,-155.6227 66.101688,-231.3559 -36.896728,88.1246 -19.937858,156.7714 30.84746,182.8813 50.78532,26.11 105.05167,-11.3013 183.88576,-66.8577 l 211.96833,458.30498 377.807,-890.50558 z"
     id="path4522"
     inkscape:connector-curvature="0"
     sodipodi:nodetypes="ccccczczcccc" />
  <path
     style="fill:#5464ff;fill-opacity:1;stroke:#2d227c;stroke-width:37.79527664;stroke-linecap:butt;stroke-linejoin:miter;stroke-miterlimit:4;stroke-dasharray:none;stroke-opacity:1"
     d="m 2713.6828,10.943487 c -53.0437,325.059753 -50.5711,658.660433 4.4068,1000.338913 0,0 -226.4245,-306.03978 -229.1525,-484.74568 -2.8616,-187.46061 224.7457,-515.593233 224.7457,-515.593233 z"
     id="path4524"
     inkscape:connector-curvature="0"
     sodipodi:nodetypes="ccac" />
  <path
     style="fill:#5464ff;fill-opacity:1;stroke:#2d227c;stroke-width:37.79527664;stroke-linecap:butt;stroke-linejoin:miter;stroke-miterlimit:4;stroke-dasharray:none;stroke-opacity:1"
     d="m 2733.7852,281.55947 110.9485,29.04504 123.6571,-29.28943 -0.2673,37.34691 -123.6801,40.95173 -109.8792,-40.19565 z"
     id="path4528"
     inkscape:connector-curvature="0"
     sodipodi:nodetypes="ccccccc" />
  <path
     style="fill:#5464ff;fill-opacity:1;stroke:#2d227c;stroke-width:37.79527664;stroke-miterlimit:4;stroke-dasharray:none;stroke-dashoffset:0;stroke-opacity:1"
     id="path4532"
     sodipodi:type="arc"
     sodipodi:cx="2741.1743"
     sodipodi:cy="1218.8756"
     sodipodi:rx="68.305084"
     sodipodi:ry="70.508476"
     sodipodi:start="5.9313618"
     sodipodi:end="5.9313444"
     sodipodi:open="true"
     d="m 2805.2954,1194.5777 a 68.305084,70.508476 0 0 1 -40.5822,90.4873 68.305084,70.508476 0 0 1 -87.6598,-41.8909 68.305084,70.508476 0 0 1 40.5815,-90.4877 68.305084,70.508476 0 0 1 87.6601,41.8901" />
  <path
     style="fill:#5464ff;fill-opacity:1;stroke:#2d227c;stroke-width:37.79527664;stroke-miterlimit:4;stroke-dasharray:none;stroke-dashoffset:0;stroke-opacity:1"
     id="path4532-3"
     sodipodi:type="arc"
     sodipodi:cx="3128.9709"
     sodipodi:cy="303.99432"
     sodipodi:rx="68.305084"
     sodipodi:ry="70.508476"
     sodipodi:start="5.9313618"
     sodipodi:end="5.9313444"
     sodipodi:open="true"
     d="m 3193.0921,279.69638 a 68.305084,70.508476 0 0 1 -40.5822,90.48738 68.305084,70.508476 0 0 1 -87.6599,-41.89092 68.305084,70.508476 0 0 1 40.5815,-90.48774 68.305084,70.508476 0 0 1 87.6602,41.89013" />
  <path
     style="fill:#5464ff;fill-opacity:1;stroke:#2d227c;stroke-width:37.79527664;stroke-miterlimit:4;stroke-dasharray:none;stroke-dashoffset:0;stroke-opacity:1"
     id="path4532-6"
     sodipodi:type="arc"
     sodipodi:cx="2804.022"
     sodipodi:cy="1498.2316"
     sodipodi:rx="68.305084"
     sodipodi:ry="70.508476"
     sodipodi:start="5.9313618"
     sodipodi:end="5.9313444"
     sodipodi:open="true"
     d="m 2868.1431,1473.9336 a 68.305084,70.508476 0 0 1 -40.5822,90.4874 68.305084,70.508476 0 0 1 -87.6598,-41.8909 68.305084,70.508476 0 0 1 40.5814,-90.4878 68.305084,70.508476 0 0 1 87.6602,41.8902" />
  <path
     style="fill:#5464ff;fill-opacity:1;stroke:#2d227c;stroke-width:37.79527664;stroke-linecap:butt;stroke-linejoin:miter;stroke-miterlimit:4;stroke-dasharray:none;stroke-opacity:1"
     d="m 3228.6023,10.943477 c 54.3185,325.059743 51.7865,658.660443 -4.5127,1000.338923 0,0 231.8661,-306.03978 234.6597,-484.74568 2.9303,-187.46063 -230.147,-515.593243 -230.147,-515.593243 z"
     id="path4524-7"
     inkscape:connector-curvature="0"
     sodipodi:nodetypes="ccac" />
  <g
     aria-label="+"
     transform="matrix(1.0148077,0,0,0.98540839,-269.70697,-549.62788)"
     style="font-style:normal;font-variant:normal;font-weight:normal;font-stretch:normal;font-size:783.86981201px;line-height:1.25;font-family:Ubuntu;-inkscape-font-specification:'Ubuntu, Normal';font-variant-ligatures:normal;font-variant-caps:normal;font-variant-numeric:normal;text-align:start;letter-spacing:0px;word-spacing:0px;writing-mode:lr-tb;text-anchor:start;fill:#5464ff;fill-opacity:1;stroke:#2d227c;stroke-width:29.39512062;stroke-opacity:1"
     id="text4597">
    <path
       d="m 3009.8083,1219.9044 148.1514,26.385 v -147.2699 h 62.7096 v 147.2699 l 148.1514,-26.385 v 61.9257 l -148.1514,26.385 v 148.0537 h -62.7096 v -148.0537 l -148.1514,-26.385 z"
       style="fill:#5464ff;fill-opacity:1;stroke:#2d227c;stroke-width:29.39512062;stroke-opacity:1"
       id="path4599"
       inkscape:connector-curvature="0"
       sodipodi:nodetypes="ccccccccccccc" />
  </g>
</svg>
